# xmcd
# 
# Track frame offsets:
#     150
#     14213
#     27200
#     49685
#     70705
#     84160
#     99742
#     111638
#     129673
#     144850
# 
# Disc length: 2090
# 
# Revision: 10
# Processed by: cddbd v1.5.2PL0 Copyright (c) Steve Scherf et al.
# Submitted via: fre:ac v1.0.17
# 
DISCID=8608280a
DTITLE=PUFFY - THE HIT PARADE
DYEAR=2002
DGENRE=JPop
TTITLE0=IMAGE DOWN
TTITLE1=ハリケーン
TTITLE2=愛が止まらない-Turn It Into Love-
TTITLE3=チェリー
TTITLE4=ハイティーン・ブギ
TTITLE5=哀愁でいと(NEW YORK CITY NIGHTS)
TTITLE6=青い涙
TTITLE7=人にやさしく
TTITLE8=嘲笑
TTITLE9=カッコマン・ブギ
EXTD=
EXTT0=
EXTT1=
EXTT2=
EXTT3=
EXTT4=
EXTT5=
EXTT6=
EXTT7=
EXTT8=
EXTT9=
PLAYORDER=
